<svg xmlns="http://www.w3.org/2000/svg" viewBox="0 0 149.4 150"><defs><style>.cls-1{fill:#3a3a3a;}</style></defs><title>cadernos</title><g id="Layer_2" data-name="Layer 2"><g id="Layer_1-2" data-name="Layer 1"><path class="cls-1" d="M71,39.36H48a1.88,1.88,0,1,0,0,3.75H71a1.88,1.88,0,1,0,0-3.75Z"/><path class="cls-1" d="M71,49H48a1.88,1.88,0,1,0,0,3.75H71A1.88,1.88,0,1,0,71,49Z"/><path class="cls-1" d="M141,13.39,107.75,8.6A10,10,0,0,0,97.84,0h-96A1.87,1.87,0,0,0,0,1.87V140a1.87,1.87,0,0,0,1.87,1.87H65.78a1.92,1.92,0,0,0,.31.11l55.21,8a9.55,9.55,0,0,0,1.41.1,9.84,9.84,0,0,0,9.72-8.43l16.87-117A9.85,9.85,0,0,0,141,13.39ZM107.9,60.55l4.12.59.27,0a1.87,1.87,0,0,0,.27-3.73l-4.66-.67V51.05l5.46.79.27,0a1.87,1.87,0,0,0,.27-3.73l-6-.86V40.45l18.72,2.7-3.8,26.37L107.9,67.37Zm-3.75-50.48V131.76a6.32,6.32,0,0,1-6.31,6.32H95.08V3.75h2.76A6.32,6.32,0,0,1,104.15,10.07ZM13.79,51.8h-10V38h10Zm0,3.75V69.37h-10V55.55Zm0,17.57V87h-10V73.12Zm0,17.57v13.83h-10V90.69Zm0-56.46h-10V20.4h10Zm-10,74h10v13.82h-10ZM17.54,3.75h6.32V138.08H17.54Zm10.07,0H40.73V28.56H36.1a1.88,1.88,0,0,0-1.88,1.87V61.71a1.88,1.88,0,0,0,1.88,1.87h4.63v74.5H27.61ZM38,59.83V32.31H81V59.83Zm44.88,3.75a1.87,1.87,0,0,0,1.87-1.87V30.43a1.87,1.87,0,0,0-1.87-1.87H78.21V3.75H91.34V138.08H78.21V63.58Zm-8.38-35H61.35V3.75H74.47Zm-16.87,0H44.48V3.75H57.6Zm-13.12,35H57.6v74.5H44.48Zm16.87,0H74.47v74.5H61.35ZM13.79,3.75v12.9h-10V3.75Zm-10,122.09h10v12.24h-10ZM145.59,24,128.72,141a6.08,6.08,0,0,1-6.89,5.15l-30.21-4.35h6.21a10.08,10.08,0,0,0,10.07-10.07V71.15l16.24,2.34a1.23,1.23,0,0,0,.27,0,1.88,1.88,0,0,0,1.86-1.6l4.33-30.08A1.86,1.86,0,0,0,129,39.71L107.9,36.66V12.41l32.53,4.69A6.09,6.09,0,0,1,145.59,24Z"/></g></g></svg>