<svg xmlns="http://www.w3.org/2000/svg" viewBox="0 0 150 150"><defs><style>.cls-1{fill:#3a3a3a;}</style></defs><title>lapis</title><g id="Layer_2" data-name="Layer 2"><g id="Layer_1-2" data-name="Layer 1"><path class="cls-1" d="M19.22,1.84a4.64,4.64,0,0,0-7.4,0,1.69,1.69,0,0,0-.24.41L.14,29.71a2,2,0,0,0-.14.72V139.71A10.31,10.31,0,0,0,10.29,150H20.74A10.3,10.3,0,0,0,31,139.71V30.43a2,2,0,0,0-.14-.72L19.45,2.25A2.06,2.06,0,0,0,19.22,1.84ZM14.92,4a.76.76,0,0,1,1.19,0l4.3,10.33H10.62ZM26.69,29.38H4.35L9.07,18a.53.53,0,0,0,.12,0H21.84A.42.42,0,0,0,22,18Zm.59,3.75v84.68H3.75V33.13ZM3.75,121.56H27.28v8.28H3.75Zm17,24.69H10.29a6.54,6.54,0,0,1-6.54-6.54v-6.12H27.28v6.12A6.54,6.54,0,0,1,20.74,146.25Z"/><path class="cls-1" d="M58.87,1.84A4.59,4.59,0,0,0,55.17,0h0a4.6,4.6,0,0,0-3.7,1.84,2.06,2.06,0,0,0-.23.41L39.8,29.71a1.81,1.81,0,0,0-.14.72V139.71A10.3,10.3,0,0,0,50,150H60.4a10.31,10.31,0,0,0,10.29-10.29V30.43a1.82,1.82,0,0,0-.15-.72L59.11,2.25A1.69,1.69,0,0,0,58.87,1.84ZM54.58,4a.75.75,0,0,1,1.18,0l4.3,10.33H50.28ZM66.34,29.38H44L48.73,18a.45.45,0,0,0,.11,0H61.5a.45.45,0,0,0,.11,0Zm.6,3.75v84.68H43.41V33.13ZM43.41,121.56H66.94v8.28H43.41Zm17,24.69H50a6.54,6.54,0,0,1-6.54-6.54v-6.12H66.94v6.12A6.55,6.55,0,0,1,60.4,146.25Z"/><path class="cls-1" d="M98.53,1.84A4.6,4.6,0,0,0,94.83,0h0a4.59,4.59,0,0,0-3.7,1.84,1.69,1.69,0,0,0-.24.41L79.46,29.71a1.82,1.82,0,0,0-.15.72V139.71A10.31,10.31,0,0,0,89.6,150h10.45a10.3,10.3,0,0,0,10.29-10.29V30.43a1.81,1.81,0,0,0-.14-.72L98.76,2.25A2.06,2.06,0,0,0,98.53,1.84ZM94.24,4a.9.9,0,0,1,1.18,0l4.3,10.33H89.94ZM106,29.38H83.66L88.39,18a.45.45,0,0,0,.11,0h12.66a.45.45,0,0,0,.11,0Zm.59,3.75v84.68H83.06V33.13ZM83.06,121.56h23.53v8.28H83.06Zm17,24.69H89.6a6.55,6.55,0,0,1-6.54-6.54v-6.12h23.53v6.12A6.54,6.54,0,0,1,100.05,146.25Z"/><path class="cls-1" d="M138.42,2.25a1.69,1.69,0,0,0-.24-.41,4.64,4.64,0,0,0-7.4,0,2.06,2.06,0,0,0-.23.41L119.11,29.71a2,2,0,0,0-.14.72V139.71A10.3,10.3,0,0,0,129.26,150h10.45A10.31,10.31,0,0,0,150,139.71V30.43a2,2,0,0,0-.14-.72ZM128,18a.42.42,0,0,0,.12,0h12.65l.12,0,4.72,11.36H123.31Zm18.21,15.11v84.68H122.72V33.13Zm-23.53,88.43h23.53v8.28H122.72ZM133.89,4a.76.76,0,0,1,1.19,0l4.3,10.33h-9.79Zm5.82,142.28H129.26a6.54,6.54,0,0,1-6.54-6.54v-6.12h23.53v6.12A6.54,6.54,0,0,1,139.71,146.25Z"/></g></g></svg>