<svg xmlns="http://www.w3.org/2000/svg" viewBox="0 0 150 150"><defs><style>.cls-1{fill:#3a3a3a;}</style></defs><title>laptop</title><g id="Layer_2" data-name="Layer 2"><g id="Layer_1-2" data-name="Layer 1"><path class="cls-1" d="M47.77,42.65l5.68,4.1v9.12a1.89,1.89,0,0,0,.75,1.51L74.51,72.52a1.84,1.84,0,0,0,1.12.37,1.88,1.88,0,0,0,1.12-.37l11.08-8.27V71a1.88,1.88,0,0,0,3.75,0V61.46l5.47-4.08a1.87,1.87,0,0,0,.76-1.5V46.75l5.68-4.1a1.86,1.86,0,0,0,.78-1.52,1.89,1.89,0,0,0-.78-1.52L76.72,20.31a1.88,1.88,0,0,0-2.19,0L47.77,39.61a1.87,1.87,0,0,0,0,3Zm27.86,26L57.2,54.93V49.46L74.53,62a1.86,1.86,0,0,0,1.1.36A1.83,1.83,0,0,0,76.72,62l11.11-8v5.63ZM94.05,54.93l-2.47,1.85V51.24l2.47-1.78ZM75.63,24.14l23.56,17-8.83,6.36-13.71-9a1.87,1.87,0,0,0-2.05,3.14l12.51,8.17L75.63,58.12l-23.56-17Z"/><path class="cls-1" d="M129.44,11.19H20.12a1.87,1.87,0,0,0-1.87,1.87V78.28a1.87,1.87,0,0,0,1.87,1.87H129.44a1.88,1.88,0,0,0,1.88-1.87V13.06A1.88,1.88,0,0,0,129.44,11.19ZM127.57,76.4H22V14.94H127.57Z"/><path class="cls-1" d="M6.26,150H143.74a6.3,6.3,0,0,0,4.8-2.22,6.16,6.16,0,0,0,1.37-5L140.8,89V9.89a10,10,0,0,0-10-9.89H18.75a10,10,0,0,0-10,9.89V89L.08,142.8a6.18,6.18,0,0,0,1.4,5A6.27,6.27,0,0,0,6.26,150ZM12.52,9.89a6.19,6.19,0,0,1,6.23-6.14H130.82a6.2,6.2,0,0,1,6.23,6.14V87.27H12.52ZM3.78,143.4,12.24,91h125.1l8.87,52.36a2.42,2.42,0,0,1-.54,2,2.54,2.54,0,0,1-1.93.89H6.26a2.49,2.49,0,0,1-1.92-.89A2.38,2.38,0,0,1,3.78,143.4Z"/><path class="cls-1" d="M16.2,134.69H133.68a1.88,1.88,0,0,0,1.86-2.13l-4.24-31.87a1.88,1.88,0,0,0-1.86-1.63H20.12a1.88,1.88,0,0,0-1.86,1.65l-3.92,31.87a1.86,1.86,0,0,0,1.86,2.11Zm3.62-15.94H44.39L43.2,130.94H18.32Zm57-3.75V102.81H99.11L100.3,115Zm23.85,3.75,1.19,12.19h-25V118.75ZM73.07,115H48.53l1.19-12.19H73.07Zm0,3.75v12.19H47l1.19-12.19Zm32.56,12.19-1.19-12.19h25.48l1.62,12.19ZM129.42,115H104.07l-1.19-12.19H127.8ZM46,102.81,44.76,115H20.28l1.5-12.19Z"/></g></g></svg>