<svg xmlns="http://www.w3.org/2000/svg" width="157" height="35.42" viewBox="0 0 157 35.42"><defs><style>.cls-1{fill:#ccc;}.cls-2{fill:#fff;}.cls-3{fill:#ff0;}</style></defs><title>logo-caed</title><g id="Layer_2" data-name="Layer 2"><g id="Layer_1-2" data-name="Layer 1"><path class="cls-1" d="M16.93,35.42A15.81,15.81,0,0,0,32.61,19.49,15.8,15.8,0,0,0,16.93,3.57,15.8,15.8,0,0,0,1.25,19.49,15.81,15.81,0,0,0,16.93,35.42Z"/><path class="cls-2" d="M38.47,20.26c0-8.9,6.5-14.89,14.88-14.89a12.66,12.66,0,0,1,11.34,6.45L60.5,14a8.37,8.37,0,0,0-7.15-4.18c-5.63,0-9.78,4.3-9.78,10.4s4.15,10.4,9.78,10.4a8.43,8.43,0,0,0,7.15-4.18l4.23,2.15a12.93,12.93,0,0,1-11.38,6.52C45,35.15,38.47,29.09,38.47,20.26Zm50.1,14.35-2.08-5.56h-13l-2.08,5.56H65.75L76.89,5.83h6.2L94.24,34.61ZM80,10.9,74.85,24.63H85.06Zm17.3,23.71V5.83h19.42v4.45H102.25v7.41h14.17v4.45H102.25v8h14.43v4.45Zm38.84,0V31.77a8.18,8.18,0,0,1-6.57,3.38c-5.21,0-9.11-4.07-9.11-11,0-6.71,3.82-10.93,9.11-10.93a7.83,7.83,0,0,1,6.57,3.41V5.83h4.46V34.61Zm0-6.29V20.07a6.64,6.64,0,0,0-5.25-2.8c-3.59,0-5.82,2.88-5.82,6.91s2.27,6.94,5.82,6.94a6.61,6.61,0,0,0,5.25-2.8Zm16.52,6.37h-6.69v-.81h6.69c2.19,0,3.55-1,3.55-2.76s-1.32-2.76-3.55-2.76h-6.69v-.81h6.69c2.68,0,4.38,1.19,4.38,3.53S155.3,34.69,152.62,34.69Zm4.19-9.33H145.93V19.61h.83v5h4V19.68h.83v4.88h5.14v.8Zm-1.13-5.71-.72-.46a2.21,2.21,0,0,0,1.21-1.81c0-1.23-1-2-2.49-2h-7.75v-.77h7.75c2.26,0,3.32,1.23,3.32,2.76a2.6,2.6,0,0,1-1.32,2.27Zm1.13-7.33H145.93V6.56h.83v5h4V6.68h.83v4.87h5.14v.77ZM24.22,10.55s.11,0,.11,0c.15-.11.34-.23.46-.34A1.54,1.54,0,0,1,26,9.71c.07,0,.11,0,.19,0V9.59a2.53,2.53,0,0,0-.34-.07c.18-.27,0-.46-.12-.69,0,0,0,.11,0,.15a.33.33,0,0,1-.11.15,3.23,3.23,0,0,0-.64,0,.27.27,0,0,0-.19,0c-.15.23-.42.19-.64.19A.25.25,0,0,1,24,9.21l.22-.92c0-.08.12-.16.15-.23l.27.11c.07-.11.15-.19.22-.3a.48.48,0,0,1,.42-.58v.08a.09.09,0,0,0,0,.07c.07-.27.11-.46.45-.34A.68.68,0,0,0,25.81,7c.11,0,.22,0,.34-.08V6.79h-.46a1.21,1.21,0,0,1,.23-.19c-.34.15-.57-.08-.87-.19.08.23-.07.11-.19.11,0,.08.12.12.19.19-.34,0-.72-.11-.75.43.3-.23.56-.39.9-.2,0,.27-.11.27-.34.08a2.38,2.38,0,0,1-.41.23h.64a2.89,2.89,0,0,1-.34.35,4.16,4.16,0,0,1-.42.23l-.75-.65a3.55,3.55,0,0,0,.22.53,1.47,1.47,0,0,0-.41-.07s0,.07,0,.07a1.54,1.54,0,0,1,.38.16c.11.07.23.19.23.27a3.49,3.49,0,0,0,0,.65.94.94,0,0,1-.42.92c-.49-.15-.53-.15-.79.46-.15.31.15.38.34.46-.19.46-.38.88-.57,1.38-.3-.46-.6-.84-.87-1.23l.12.35a1.63,1.63,0,0,1,.22.34c0,.43,0,.85,0,1.27,0,.19-.19.23-.34.19a3.15,3.15,0,0,1-.37-.19.58.58,0,0,0-.23-.08s-.08.12-.12.19,0,.16-.07.27-.23,0-.34,0l0,0a4.43,4.43,0,0,0,.53.23,1.66,1.66,0,0,0-.23.23.3.3,0,0,0,0,.16c.07,0,.15,0,.18,0a2.06,2.06,0,0,0,.27-.35,1,1,0,0,1,0,1.08c-.15.19-.27.42-.42.65,0,0,0,0,.08,0a1.49,1.49,0,0,1,.15-.31s.07.08.11.08c.08.46-.23.84-.41,1.26-.08,0-.23.08-.23.12.07.19-.08.27-.23.38a2,2,0,0,1,.46-1c-.23,0-.38.27-.61.84a2.08,2.08,0,0,1-.26.08c.34.07.34.19.11.34.42.31,0,2-.49,2.42.34.35,0,.69.07,1,0,0,0,0-.07,0L19.23,20c-.3,0-.64.27-1,0a2.24,2.24,0,0,0,.19-.46c-.23,0-.23,0-.27-.34-.07.11-.18.23-.26.34s-.08,0-.11,0c0-.5,0-1,.07-1.46v-.11c-.34-.5-.19-1.08-.22-1.65a.53.53,0,0,1,.26,0,1.62,1.62,0,0,0-.08.38,1.47,1.47,0,0,0,.31-.15,1.19,1.19,0,0,0,.07.23c0-.16,0-.23.08-.27s.15,0,.26,0,0-.12,0-.19c.31,0,.19.19.19.3a.9.9,0,0,1,0,.43h.07c.11-.16.23-.35.34-.54a3.79,3.79,0,0,1,.38.42c0-.19-.3-.38,0-.54,0,0-.08,0-.12-.07v0c0-.23,0-.31-.11-.42,0,.19-.11.38-.15.61-.19-.08-.3-.11-.23-.35s-.11-.38-.15-.49c-.11.11-.23.26-.41.46-.12-.12-.19-.23-.31-.27s-.26,0-.45,0a.18.18,0,0,1,0,.11s0,.08,0,.12c-.19-.31-.19-.31.16-.46.07,0,.15,0,.18-.08a.27.27,0,0,0,.08-.19c-.23,0-.08-.23-.11-.31s-.34,0-.38-.19a.55.55,0,0,1,.3-.69c0,.07,0,.11,0,.15l1.36-1.15v0a2,2,0,0,1-.42.19c-.11-.15-.11-.23,0-.42,0,0,.08-.08.08-.11a.53.53,0,0,1,.53-.58,2.08,2.08,0,0,0,.26,0c0-.15,0-.27,0-.38s-.11,0-.22.07c.07-.34.15-.61.22-.88a5.59,5.59,0,0,1,.68.31c0-.08.12-.19.08-.23s0-.27.11-.35.27-.23,0-.42a.33.33,0,0,1-.11-.15,1.78,1.78,0,0,1,.45-.08L20,9.63a.58.58,0,0,1-.08.12c-.07,0-.15,0-.22-.08,0,.15-.08.31.19.35a.33.33,0,0,1,.34.23c0,.15-.23.3-.42.26H19.5s0,0,0,.08a.42.42,0,0,0,.15,0c-.23.42-.38.77-.6,1.15-.08,0-.12-.11-.19-.15H18.7c.12.23.27.46.08.69s-.19.5-.45.73c0-.23,0-.43-.08-.58h0c0,.27,0,.54-.07.81-.08,0-.08-.08-.08-.12,0-.65,0-1.3,0-2,0-.11.07-.26.07-.38V9.21c0-.15,0-.19.23-.19a.37.37,0,0,0,.45-.27c0-.12,0-.19.08-.31a3.33,3.33,0,0,1-.53-.11.44.44,0,0,1-.23-.27s0-.19.08-.19a.82.82,0,0,1,.3.07c.19.12.38.23.61.35C19,8.06,18.7,8,18.7,7.67l.53-.11v0h-.49c.11-.15.19-.23.27-.34l-.08-.08a1.93,1.93,0,0,1-.3.27c0-.39-.23-.39-.49-.35,0-.38-.12-.73-.15-1.11h-.08a5,5,0,0,0,0,.73,4.34,4.34,0,0,0,.42.73l-.49.88c-.15,0-.31-.08-.31,0s-.22.19-.41.19c.11,0,.23,0,.38.08l-.31.19s.08,0,.12,0a2.83,2.83,0,0,1,.26.31l.15-.08a1.28,1.28,0,0,1-.07-.26.46.46,0,0,1,.41.46c0,.88,0,1.8,0,2.68,0,.08-.08.16-.12.23h0a2.12,2.12,0,0,1-.11,1.38,1.89,1.89,0,0,1-.11-1.22c0-.08.15-.12.22-.16v0a3.49,3.49,0,0,1-.34-1.34h-.07c0,.08-.08.19-.11.27a3.79,3.79,0,0,0-.46-.19s0,.07,0,.11a.27.27,0,0,1,.19,0c.08,0,.12.12.19.19a1.23,1.23,0,0,0-.26.12c.07.07.11.15.19.23s0,0,0,0,0-.12,0-.19c.34.07.45.23.41.61,0,.08,0,.19,0,.27s0,.23,0,.35c0,.49,0,1,.07,1.61h0s0-.08-.07-.08l-.23.23c-.11-.08-.22-.19-.34-.27.23.19.08.42,0,.65a2.28,2.28,0,0,1-.76-1.42s.08,0,.12,0a.49.49,0,0,0-.49-.38c-.15.35-.46.31-.8.23a1.38,1.38,0,0,0,.46.27c.26.11.22-.23.37-.31.08.16.12.31.19.46h-.6s-.08.12-.12.08c-.26-.12-.3,0-.41.19s-.11.31.11.46c-.19-.08-.41-.11-.64-.19l.23-.23c-.08,0-.12,0-.19,0a3.07,3.07,0,0,0,0-.31c-.23.16-.38.23-.57.35l0,0,.15-.27a3.42,3.42,0,0,0-.6.08c0,.08,0,.08.07.11s.19.16.27.23l0,0a2.32,2.32,0,0,0-.23-.15c.08.34-.19.11-.3.27.08,0,.15.11.19.11.23,0,.34,0,.38.27,0,0,.07.08.11.08l.11-.12V14.2h1c.34,0,.65,0,.76-.35h-.07l-.12-.23c.15-.07.3-.11.49-.19a6.94,6.94,0,0,0,.61,1c.22.34.64.65.53,1.15v.07c.07.46.15.92.19,1.39a.93.93,0,0,1-.12.76s0,.16,0,.19-.19,0-.3.08v.08a1.76,1.76,0,0,0,.45.07,1.12,1.12,0,0,1,.08.39,4,4,0,0,1,.07.69,3.74,3.74,0,0,0,0,.58,11.69,11.69,0,0,1,.12,1.19c0,.07,0,.23-.08.23a3.87,3.87,0,0,1-.64.11h-.26c0,.27.11.35.3.42s.38.16.38.39c.11,0,.22.07.41.11a1.11,1.11,0,0,0-.3.12,1.16,1.16,0,0,1-.34,1.34v.08c0,.26-.19.53-.42.49-.07,0-.15-.11-.22-.15-.15.19,0,.27.11.39a.7.7,0,0,1,.19.26,2.89,2.89,0,0,1-.23,1.85c-.11-.2-.22-.27-.26-.43-.34-1-.65-1.93-.95-2.91-.07-.27-.19-.54,0-.81a.07.07,0,0,0,0-.11.52.52,0,0,0-.19,0,.76.76,0,0,1-.11-.88c.08-.11.38-.15.61-.23a.52.52,0,0,0-.27-.07.14.14,0,0,1,0-.08l-.23-.12c-.11-.11-.26-.23-.38-.07s-.26.15-.41,0-.34.11-.57.11c0,0-.07.19,0,.23s.19.19.27.27c.15-.15.3-.23.41,0a6.37,6.37,0,0,1,.42.69c.15.46.19.92.34,1.35.23.69.49,1.42.72,2.11a1.15,1.15,0,0,1,.07.27h-.07c-.42-.47-.87-.93-1.29-1.39a.32.32,0,0,1,0-.27c.19-.15.12-.26,0-.42s0-.11,0-.19,0-.08.08-.15-.12,0-.19,0a.5.5,0,0,0-.27.08.57.57,0,0,0,.12.15c-.15,0-.27,0-.42,0l-.08-.08a5.54,5.54,0,0,1,.42-.42l0,0-.34.23c0-.11,0-.19.08-.27l0,0c-.11.08-.23.2-.34.27a4.44,4.44,0,0,0-.42-.27.58.58,0,0,0,.19.66s.08.15,0,.19c-.07.3,0,.34.3.27a.43.43,0,0,1,.49.11,10.84,10.84,0,0,1,.72.85,1.37,1.37,0,0,0,.38.38,3.28,3.28,0,0,1,1.13,1.38c.08.15,0,.42.15.54a.37.37,0,0,1,0,.54,1.31,1.31,0,0,0,0,.34s.11,0,.15.08c.07-.12.19-.19.22-.31a1.45,1.45,0,0,0,0-.42,2,2,0,0,0,.27.15,6.43,6.43,0,0,1,.64.73c.08.08.08.19.19.08a1.82,1.82,0,0,1,.11.46v.27c0,.15,0,.34,0,.5,0,.73-.11,1.49-.15,2.22,0,.38,0,.81,0,1.19,0,0,0,.12,0,.15a1.59,1.59,0,0,0-.12.31c-.07.38-.15.77-.19,1.15.31,0,.65,0,.95,0,0-.46,0-.92.07-1.38,0-.69.12-1.34.15-2s.08-1.19.08-1.77c0-.77-.15-1.53-.19-2.26a17.87,17.87,0,0,1,0-2.07,2.17,2.17,0,0,1,1-1.69A3.63,3.63,0,0,0,21,22.52c.11-.23.26-.42.38-.65a1.05,1.05,0,0,1,1.21-.38,1.71,1.71,0,0,0,.45,0v0c-.08,0-.15,0-.23,0,.95-.27,1.93,0,2.87-.31a11.3,11.3,0,0,1-1.17.08c-.49,0-1,0-1.43,0a1.29,1.29,0,0,1-.38-.12c-.23.08-.53.16-.79.23-.08,0-.31,0-.31-.07a1.63,1.63,0,0,1,.08-.43c.26.31.38.31.57,0l-.34-.23a.11.11,0,0,1,0-.07,5.85,5.85,0,0,1,.8-.2v0c-.08,0-.12,0-.23,0a2.31,2.31,0,0,1,.3-.16s0,0,0,0-.26.07-.41.11c-.11-.23,0-.34.15-.54s.3-.46.49-.73a.2.2,0,0,0-.15.08c-.23.23-.45.5-.68.73,0,0-.19,0-.23.08-.22.19-.34.19-.53,0,0,0-.11-.16-.18,0s-.16.07-.19.11-.15.19-.23.27l.34.23c-.23.23-.42-.15-.61-.15a2.57,2.57,0,0,1,0-.31c-.15.08-.27,0-.27-.19a1.46,1.46,0,0,1,.08-.58c.15-.57.3-1.15.49-1.69a9.35,9.35,0,0,1,.38-.88h.07c0,.16.08.27.12.42a.23.23,0,0,1,.15,0,.65.65,0,0,0,.15-.27c.07.08.15.12.23.2a1.07,1.07,0,0,0-.19.07c.3,0,.49.16.53.39a2.13,2.13,0,0,1,.18-.31,0,0,0,0,1,0,0,2.35,2.35,0,0,1,.08-.35l-.38-.11v-.08c.11,0,.26,0,.45,0a2.34,2.34,0,0,0-.3-.11.72.72,0,0,0,.23-.12,3.71,3.71,0,0,0-.46-.19,1.64,1.64,0,0,1-.22.08c0,.11,0,.27,0,.34a.89.89,0,0,1-.38.16c.23-.46.23-.46-.15-.58,0-.08,0-.12,0-.19l.22-.69a.45.45,0,0,1,.31-.39c.15,0,.15-.11.07-.23s0-.5.19-.57.38-.19.6-.27c0,0,0,0,0,0h-.19c-.08-.15-.12-.27-.19-.42a.27.27,0,0,1,.11-.19c.08,0,.19,0,.34,0a2.11,2.11,0,0,0-.19-.23,1.11,1.11,0,0,0,.34,0c0-.12,0-.2-.07-.23-.27-.12-.15-.27-.08-.43a7.4,7.4,0,0,1,.42-.61c.07-.12.22-.19.26-.31a.93.93,0,0,1,.49-.57c.08,0,.08-.16.12-.23a.56.56,0,0,0,0-.12c-.27.12-.15-.15.15,0Zm.64-1.11c.15,0,.3.08.49.15l-.45.31c0-.15-.08-.27-.11-.42C24.82,9.48,24.86,9.44,24.86,9.44ZM17.27,22c-.15.34-.27.07-.42,0,.08-.31.3-.35.57-.35,0,.12,0,.23,0,.38A.18.18,0,0,1,17.27,22Zm.41,6.29c-.41-.31-.9-.46-1-1a3.07,3.07,0,0,1,.15-1.61.29.29,0,0,1-.07-.15,4.72,4.72,0,0,1,0-.73c0-.12.19-.23.07-.35.15-.08.3-.19.49-.31C17.49,25.63,18,26.9,17.68,28.32Zm.38-8c.27-.08.61-.19.57.31-.15,0-.3,0-.45,0,0,.12,0,.23.07.43-.3-.12-.3-.23-.19-.77Zm.08,4.83,0,0a.59.59,0,0,1,0-.69c.15-.23.3-.5.45-.73l0,0-.5.69s0,0-.07,0c.15-.27.26-.54.41-.81a2.44,2.44,0,0,0-.07-.38,3.34,3.34,0,0,0-.19.38H18c0-.23,0-.42,0-.69a1.74,1.74,0,0,1,.3.08l-.08-.08.27-.27c-.08,0-.15-.08-.15-.11-.12-.31.19-.23.34-.39,0,.16,0,.23,0,.35s0,0,.07,0,.12-.12.16-.2c0,.08.11.16.15.27s.07.19,0,.23a23.55,23.55,0,0,1-.9,2.34ZM20,21.41a3.09,3.09,0,0,1,.3.08c.15-.31.31-.31.49-.12.08-.07.19-.15.27-.23-.42.35-.15.85-.38,1.27a3.52,3.52,0,0,1-1.36,1.5s-.11,0-.19.07c.15-.46.27-.92.42-1.34S19.72,21.83,20,21.41Zm1.66-7.83a1.25,1.25,0,0,1-.15.39s0,0-.07,0a1,1,0,0,0,.11-.27,2.4,2.4,0,0,0-.11-.31h.22C21.61,13.43,21.65,13.51,21.61,13.58Zm.42-.84v-1C22.41,12.16,22.41,12.39,22,12.74Zm1.4-1.69c-.08,0-.12,0-.19-.08.19.2,0,.35-.08.5a5.56,5.56,0,0,0-.41.58s0,0-.08,0c.15-.42.34-.84.53-1.3l0,0a1.82,1.82,0,0,0-.15-.23.31.31,0,0,1,.15-.08c.12,0,.23,0,.31.12S23.54,10.86,23.43,11.05ZM9.56,22c-.15-.07-.38-.11-.23-.45-.34.26-.45,0-.6-.12a1.12,1.12,0,0,1-.27-.38c-.22-.31-.41-.62-.64-.89a1.77,1.77,0,0,0,.23.5.51.51,0,0,1,0,.31.66.66,0,0,1-.38,0c-.8-.32-1.6-.65-2.38-1-.15-.08-.3-.19-.46-.27H4.65s0,.08.07.12H4.46A6.1,6.1,0,0,1,7,21l-.11.12s0,0,0,.07l.3-.11c.11.07.19.15.3.23l0,0s-.07,0-.11,0c-.19-.08-.3-.12-.3.15s-.15.31-.23.5a1.24,1.24,0,0,0-.38-.23c-.07.08-.15.19-.26.31l1.25.11v0s-.12,0-.16-.07.12-.16.12-.23c0-.23.07-.27.26-.27H8a2,2,0,0,1,.42.07.15.15,0,0,0,0,.12L7.86,22l.64-.11s0,0,0,.08a.76.76,0,0,1,.26.15c.08-.15.15-.31.19-.31s.26.12.38.16l-.08.07a2.34,2.34,0,0,1,.49.16c.19.07.38.23.57.3.75.31,1.47.62,2.23.92,0,0,.11,0,.19,0a.14.14,0,0,1,0-.11l-1.29-.58C10.85,22.56,10.2,22.29,9.56,22Z"/><path class="cls-3" d="M31.36,14.31l-.45-.15.08.11a1.16,1.16,0,0,1-.16,0l-.07.15,0-.15c-.3.07-.42.11-.42.23v.15l0,0s0,.07,0,.07a1.16,1.16,0,0,1,.08.31,0,0,0,0,1,0,0,.14.14,0,0,0-.08,0,.45.45,0,0,0-.3,0,.09.09,0,0,0-.08.08s0,0-.07-.08a.64.64,0,0,0-.64-.19.89.89,0,0,0-.34.23.54.54,0,0,1-.23.15c-.11,0-.19,0-.3.08-.34.08-.83.19-.95.65l0,0a.56.56,0,0,0-.37-.2,1.74,1.74,0,0,0-.61.31c-.11,0-.15-.08-.26-.11a4.25,4.25,0,0,0-.46-.27,4,4,0,0,0-1.09-.23c-.15,0-.23,0-.3,0a.64.64,0,0,1-.31,0l-.11,0-.08.11a.2.2,0,0,1-.18.12.89.89,0,0,0-.19-.31l0,0-.08-.08c0-.07-.08-.19-.15-.3s0-.08,0-.16a.79.79,0,0,0-.08-.26c.11-.39-.11-.5-.49-.69l-.15-.08-.15.11A2.5,2.5,0,0,0,22,15.46s-.11,0-.15,0l-.11,0a2.85,2.85,0,0,0,.38-1.42c-.23-.81-1.36-.65-1.63,0-.19.42-.15.42.08.92,0,0,.72.35.6.62l-.15,0,.11,0a.48.48,0,0,1-.22.12c.11,0-.42-.23-.34-.19-.27-.77-1.78.11-1.66-.43s1.36-.46,1.28-.92c0,0-.23-.07-.26-.11a1.36,1.36,0,0,0,.34-.69,1.78,1.78,0,0,0,.71-.12.7.7,0,0,0,.19-.15.85.85,0,0,0,.38-.12,3,3,0,0,1,.42-.11l.11,0,.08-.08a.26.26,0,0,0,.07-.27c-.07-.27-.6-.5-1-.61.15-.08.34-.2.49-.27a2.21,2.21,0,0,0,.6-.35c.15,0,.19.16.23.27.11.27.27.5.91.46,0,0-.08.08-.08.12a.67.67,0,0,0-.22.42.39.39,0,0,0,.11.23l.11.11.08-.11a5,5,0,0,1,1.43-.42c.31-.08.61-.12.8-.19l.22-.08-.15-.15a1.06,1.06,0,0,1-.26-.43,2.15,2.15,0,0,0,1.47-.38.52.52,0,0,0,.19-.38h0l-.23-1a2.31,2.31,0,0,0,.68-.15l0-.08,0,0c.08-.08.64-.54.76-.62a.32.32,0,0,1,.3.08.69.69,0,0,0,.41.08,1.47,1.47,0,0,1,.42,0,.47.47,0,0,0,.45,0,.63.63,0,0,0,.19-.54V8.44s-.11,0-.19,0a.67.67,0,0,1-.3,0,.39.39,0,0,0,.15-.46c-.11-.46-.87-.92-1.32-1.07a.51.51,0,0,0,0-.35.22.22,0,0,0-.26-.07.68.68,0,0,0-.46.46,2.73,2.73,0,0,0-.83,0c-.15,0-.19.15-.15.23,0,.23.08.5-.19.61a1.15,1.15,0,0,1-1.28-.54,1.32,1.32,0,0,1,0-1.53.42.42,0,0,1,.57,0,.31.31,0,0,0,.45-.08,1.63,1.63,0,0,0,.19-1.53c.49-.19.46-.46.42-.77,0-.12,0-.19,0-.23a.54.54,0,0,0,.41,0,.92.92,0,0,0,.5-.62c0-.07.07-.19.11-.26s.19.15.3.23l0,0c.23.08.3,0,.34-.07.11-.27-.57-.85-.57-.85L28,1.5v0a3.42,3.42,0,0,1-.79-.69s0,.08,0,.12L27.13.88V.77H27v0c-.11,0-.15.15-.23.19V1a.16.16,0,0,1,0-.08L26.3,0l.11,1a3.7,3.7,0,0,0,.08.46,6.17,6.17,0,0,1,.15.84A1.9,1.9,0,0,1,26.19,2c-.12-.12-.15-.12-.19-.12l-.23-.08.11.16c-.71.65-1.05,1.11-1,1.38a.86.86,0,0,0-1,.46,1.63,1.63,0,0,1-.45.42A1.89,1.89,0,0,0,22.79,4h-.08l0,0a2.58,2.58,0,0,0-.26.38.63.63,0,0,1-.27,0c-.3,0-.53,0-.64.62s.23.76.53,1a1.73,1.73,0,0,1,.42.46.76.76,0,0,1,0,.5l-.12.12A.44.44,0,0,0,21.84,7c-.19.08-.3.31-.3.66A.46.46,0,0,0,22,8.1c.19.07.38.15.38.46a.55.55,0,0,1-.41.07c-.27-.07-.46-.38-.61-.65a1.46,1.46,0,0,0-.41-.5,1.81,1.81,0,0,0-.53,0c-.19,0-.53,0-.61,0V7.33L19.88,7A.66.66,0,0,0,20,6.79c.15.08.19.5.3.5.6-.08.68-1,.6-1S20.4,5.1,20.25,5.1c.15,0-.34.62-.34.5-.49,0-.15-.5-.49-.34s-.26.27-.3.65c.15-.77.64.77.34.77a.62.62,0,0,0,.45,0c0,.09-.08.18-.11.27l-.23.23a1.11,1.11,0,0,0-.34.46A3.3,3.3,0,0,1,18.7,7c-.34-.5-.53-.73-.71-.65a.14.14,0,0,0-.08,0c-.11-.16-.22-.31-.34-.46s-.08-.08-.08-.12a1.85,1.85,0,0,1,.34-.11.11.11,0,0,1-.07,0l.11,0,.15,0s0-.08,0-.15a.18.18,0,0,0,0-.12c-.23-.38-1.25-.61-1.33-.65-.3,0-.45,0-.56.11a.4.4,0,0,0,0,.42,1.89,1.89,0,0,1-.23-.11l-.07,0-.08,0a.24.24,0,0,0-.15.23c0,.12.11.15.26.23a.85.85,0,0,1-.53.12h0a.28.28,0,0,0,0-.16c-.08-.31-.12-.5-.08-.57h0a.7.7,0,0,0,.49-.27.39.39,0,0,0,.11-.42c-.11-.31-.64-.43-1.21-.5h-.11l0,.15-.15,0a.72.72,0,0,0,.12.23s-.08,0-.12,0a.58.58,0,0,0-.49.15l-.07.08.11.08h0v.11a.14.14,0,0,1-.08,0,1.61,1.61,0,0,1,.15.46S13.87,5,13.83,5s-.27-.19-.42-.12-.15.27-.15.58.38.77.68.77h0v.15s-.08,0-.15,0-.38.11-.45.3v.12s0,0-.08,0l-.11,0L13,6.91a.54.54,0,0,0,0,.76l0,0h0a.68.68,0,0,0,.3-.07l.49-.2.08,0,0,0c.15,0,.27-.07.3,0h.31v0h0c-.19,0-.38.12-.61.31a4.38,4.38,0,0,1-.45.31.2.2,0,0,0-.15-.12s-.57-.23-.72,0h-.22c-.46.16-.68,1-.87,1.69a6,6,0,0,1-.19.61l-.46.69c-.11.16-.22.35-.34.5h-.22c-.12,0-.49.12-.53.39v.07c.07.39.49.46.83.5a1.46,1.46,0,0,1,.42.12,1,1,0,0,1,.15.5l-.12,0,.19.15a.64.64,0,0,0,.08.19,1.22,1.22,0,0,0,.3.5l.08,0,.11-.16.07.08.08-.08a1,1,0,0,0,.23-.19,2.94,2.94,0,0,0,2.26.12.26.26,0,0,0,.15-.16,3,3,0,0,0,.23.54c-.68.08-1.43.19-1.66.65a.71.71,0,0,0,.19.77c.26.35,1.62.39,2.11.23l.15,0,0-.08s0,0,0,0,.07-.08.11-.16a.6.6,0,0,1,.23.12.68.68,0,0,0,.37.15c.08,0,.15-.08.19-.15a.88.88,0,0,0-.07-.81.6.6,0,0,1-.12-.46s0,0,.08-.08h0a1.47,1.47,0,0,1,.6-.15c.11,0,.23,0,.34,0v.08a1.16,1.16,0,0,0,.15.69.9.9,0,0,1,.12.5l-.16,1.26.34-1.15.12-.38a2.66,2.66,0,0,0,.11,1.3c0,.08-.11.54-.11.5a1.15,1.15,0,0,0-.34.54c.11,0,.15-.08.26-.11s.34.65.34.42c0,0,.23,0,.27,0,0,.12.34.81.49.61,0-.07.11.16.07.08.12,0,.15.08.15.19.8-.73,0-.07.76-.15a.15.15,0,0,1,0-.12c0,.12.12.12.3.08s.08-.23,0-.27.12,0,.12.08c.19-.08.83-1.15.68-1.38s-.72.61-.76.76c-.15-.38-1-.23-.72-1,.16.23.23.11.16,0,.26,0,.37.15.6.19,0-.08-.11-.54-.19-.5.42,0,.53,0,.64.46a2.05,2.05,0,0,0,.76-.84l.15,0a6.47,6.47,0,0,1-.41.92c-.53,1-.84,1.69-.65,2l.12.19.15-.11a.63.63,0,0,1,.41-.12l-.3.5L21.5,19l.15.12,0,.08.34.15.19-.23c.12-.12.23,0,.34,0a.21.21,0,0,0,.3,0,.49.49,0,0,0,.08-.58.47.47,0,0,0-.38-.19c.08-.15.15-.34.19-.42l.08,0v-.07l.11.07c.11.08.19.15.3.12.3,0,.34-.23.34-.31,0-.42-.9-1-1.09-1a.48.48,0,0,1-.15-.46c.07-.15.3-.19.45-.19s.3.15.41.42a3.54,3.54,0,0,0,.19.31.4.4,0,0,0,.19.31.61.61,0,0,0,.57-.08s0,0,.07,0,0,.12,0,.19a1.77,1.77,0,0,0,.15.46l-.22.35,0,0,0,0,0,.19.15,0h0l.83,0v0h.07c.31,0,1.48-.12,1.55-.5a.79.79,0,0,0-.15-.54s-.07-.08,0-.12.15-.07.34,0a.71.71,0,0,0,.56.12c.19.15.53,0,1-.23a2.94,2.94,0,0,1,.8-.31c0,.31.15.42.26.42.27,0,.49-.3.53-.38a.15.15,0,0,0,0-.12l.57-.57,0,0h.08A.31.31,0,0,0,31,16l.08-.11s0,0,.07,0l.08-.08,0,.11h0a.28.28,0,0,0,.3-.07,1.09,1.09,0,0,0,.23-.92A.58.58,0,0,0,31.36,14.31ZM25.85,9.56l0,0s0,0,.08,0a1.8,1.8,0,0,0,.91.22v.81l-.49-.23a5.07,5.07,0,0,0-.84-.34A.74.74,0,0,1,25.85,9.56ZM11.71,13.85l0,0s.08,0,.08,0ZM13,10.71h.15a.57.57,0,0,0-.11.38c0,.08,0,.11-.08.15a1.17,1.17,0,0,0-.3-.57l.34,0Zm.87,1.65s-.15,0-.42.11c-.45.12-.49,0-.56-.08s-.12-.19-.27-.26a.38.38,0,0,0,.19-.16.36.36,0,0,0,.08.27.29.29,0,0,0,.26.12.79.79,0,0,0,.38-.12c.23-.11.42-.19.57-.11A.51.51,0,0,0,13.83,12.36Zm.57-2.31a.66.66,0,0,0-.23,0,1.28,1.28,0,0,0-.83.46,1.49,1.49,0,0,0-.19-.72.3.3,0,0,1,.11,0l.08.07.15-.15,0-.11a1.12,1.12,0,0,0,0-.2,1.13,1.13,0,0,0,.8-.07.84.84,0,0,1,.3-.08c0,.23.19.35.3.46s.27.23.23.46S14.59,10.09,14.4,10.05Zm.22-2.57A.6.6,0,0,0,15,7.37v0c0,.07-.11.15-.19.26l-.11.12a.33.33,0,0,0-.08-.19.17.17,0,0,0,0-.12Zm.65-1.07a2.09,2.09,0,0,0-.5-.08h-.11c0-.11,0-.23,0-.34V5.91a.63.63,0,0,0,.49,0l.12.12a1.93,1.93,0,0,1,.34.42.75.75,0,0,1-.3,0ZM16,9.09s0-.11.08-.15a.76.76,0,0,1,.07-.19s0,.07.08.11l.07.16C16.17,9.06,16.1,9.06,16,9.09ZM16.36,9l.08-.12.49-.49a1,1,0,0,1,.22-.2,3.31,3.31,0,0,1,0,.54c-.11,0-.3,0-.53.15Zm.38,3.22a2.24,2.24,0,0,1,.19-.46c.07-.15.11-.27.15-.38,0,0,0,.07.08.15a.49.49,0,0,0,.11.23A1,1,0,0,0,16.74,12.2Zm3-3.26a1.17,1.17,0,0,1,.27.69c0,.08-.15.08-.23.08s-.11,0-.15,0,0-.5.11-.73Zm-.07,4.26a.12.12,0,0,1,0-.08h0l-.15.23a.21.21,0,0,0,.18.08s.12,0,.15,0a3.3,3.3,0,0,0-.37.19l-.12-1A2.21,2.21,0,0,1,19.65,13.2Zm-.34-5c0,.08.08.16,0,.16h-.12A.21.21,0,0,0,19.31,8.17Zm-1.85,5.95h0v0A0,0,0,0,0,17.46,14.12Zm.15-2.19s0,.08,0,.16l-.11-.2h0a.37.37,0,0,0,.15,0Zm.57,3.57a3.68,3.68,0,0,1-.12-.46s-.07,0-.07,0v0a10.62,10.62,0,0,0,.3-1.53c0-.27.11-1.15.11-1.38V12h-.15a.52.52,0,0,1-.34-.08l0-.11h-.11l-.08,0c.08,0,.12-.12.16-.27a1.49,1.49,0,0,0,0-.81c.23,0,.34,0,.42-.15,0,.19.07.54.11.77s.08.57.12.8l.07.27.19-.19c.11-.11.19-.19.23-.19v.08c0,.19.11.34.15.53l.34,1c-.46.31-.87.81-.42,1.11-.15-.11-.72.62-.9.73Zm3.47,3.3-.07-.07h0s0,0,.08.07Zm9.71-3-.11-.08h0S31.33,15.73,31.36,15.77ZM28.68,21.1c0-.11-.3-.69-.38-.69a8.49,8.49,0,0,0-1.17.62c-.26,0,.11-.27-.23-.31,0-.19-.83,0-1,.31s0,.3.11.38a1.33,1.33,0,0,0,.87.08c0,.08.07.15.19.11-.12.31-.31.12-.42.12v.15c0-.11-.87.27-.91.27s.27,0,.34.15c-.68.16.27.12.5,0,.07,0,.71-.88.18.12.15-.12,1.48-.31,1.48-.66.22,0,.38.35.87.12.19-.08.37-.61.49-.81,0-.53-.8-.07-.87,0Z"/><path class="cls-3" d="M10.85,7.87c-.12,0,.68.27.52,0,.57.53,1.36-.39.87-1,.12.11-1.21-.5-1.21,0C11,6.37,9.94,8.25,10.85,7.87Zm2.3,11.62a.36.36,0,0,0-.26-.38c0-.19-.27-.27-.42-.35a1.17,1.17,0,0,0-.38-.42L12,18.23a.59.59,0,0,0,.45-.2.85.85,0,0,0,.08-1,1.2,1.2,0,0,0-.8-.54c-.19-.08-.37,0-.53.15,0,0,0-.11,0-.15a.2.2,0,0,0-.15-.08h-.23l0,.12-.19.19a.93.93,0,0,0-.3.31s0,0-.08,0a1.28,1.28,0,0,0-.94.31s0,0,0,0a4.46,4.46,0,0,0-1.14.08,1.54,1.54,0,0,0-.64.65c-.07.12-.19.27-.23.27s0,0-.11-.19l0,0H7c-.46-.15-.91.58-1.36,1.38,0,.08-.08.12-.08.16s0,0-.07.07l-.27.42.42-.26s0,0,.07,0,.23-.08.34-.12a1,1,0,0,0,.19.12c.15.07.19.11.19.19v.15h.15c.12,0,.49-.19.49-.38a.71.71,0,0,1,.49.08l.27.19,0-.31a1.22,1.22,0,0,0-.19-.61,0,0,0,0,0,0,0s.16-.15.31-.27h0a.4.4,0,0,0,.34.12c.12,0,.16-.16.16-.39l.9.16c.49.07.49.07.57,0a1.46,1.46,0,0,1,.15-.31s0,.11.08.15a1,1,0,0,0,.26.39.62.62,0,0,0,.34.76,1.33,1.33,0,0,0,.11.43c0,.11.34.61.57.61h.08c.11,0,.11-.15.11-.27s0,0,.08,0l.19,0v-.19a.62.62,0,0,1,0-.27s.15,0,.31,0a1.3,1.3,0,0,0,.41,0c.08,0,.49-.23.53-.5Zm-6.31-.07h0v-.27s.08,0,.11.11-.07.08-.07.16ZM10,14c.6.49.45-.46.94-.46,0-.23-.3-.77-.53-.73s-.57-.19-.79,0S8.84,13.93,9.26,14a.67.67,0,0,0,.11-.15C9.14,14.27,9.82,14.08,10,14Z"/><path class="cls-3" d="M5.82,7.68c0,.07.34.23.38.19s.15-.5.26-.43c.38.31-.19.5.11,1S8.39,8.4,8,9a7.65,7.65,0,0,0,1.1.77c.07,0,0-.27.07-.35.19-.15.23.31.42.08S9,9.13,9,9.13s.3-.34,0-.19c0,0,.15-.11.19-.11,0,.38,1.09.69.9.76,0,0,0,0,.08,0-.31.19-.61.58.11.35.11,0,.15,0,.23-.08V9.82a.33.33,0,0,0,.26,0c0,.19.19.07.23-.12a.86.86,0,0,0,.41-.58c.15-.61-.53-.88-.53-.46,0,0-.75-.3-.6,0-.11,0-1.55-.73-1.55-.46,0-.2.3-.46.3-.62,0,.08-.45-.34-.41-.34.26-.16.38-.31.22-.5-.3,0-.18-.08-.52.19-.08,0,0-.19-.16-.19S8,6.83,8,6.87a4.29,4.29,0,0,1-.56-.35s-.34.31-.34.12c0,.54-.42.42-.65.57-.07-.46-.68-.3-.64-.11l.3.15A4.44,4.44,0,0,0,5.82,7.68Zm3.82,3c.07,0-.61-.08-.42,0,.08-.15-.68.08-.64.61,0-.26,1.06.43,1.13.35a.75.75,0,0,0,0-.42c.23,0,.42.15.61.15s-.49-1.76-.68-.65Zm6.12,11.24c0-.19-1-.23-.95-.23a.8.8,0,0,0-.9,1c.19.58.41.19.9.08v.15c-.11,0-.07.11,0,.15h0c.12.08.3.16.34.23s.68-.5.61-.38C16.17,22.33,15.68,22.6,15.76,21.87Zm-.08-5.33-.64,0a1.56,1.56,0,0,1-.3-.19.7.7,0,0,0-.27.42l0,0c-.11.08-.11-.61-.41-.31-.08.08-.64.77-.23.81a6.58,6.58,0,0,1,.83,0,.66.66,0,0,1,0-.27c.42.19.27-.19.27-.19s.19-.12.3-.08c-.11.38.11.84-.23,1a.52.52,0,0,0,.27.19c-.11.38-.94.81-.91.88s.27,0,.27.35c0,.15.07.38.07.5s-.34.46-.34.46c0,.38.27.57.38.23,0,0,0,0,0,0,.57-.46.46.53.68.76.12-.11,0-.34.12-.53,0,.27.19.07.19,0s.19,0,.19,0c.18.31-.27.35-.27.46,0,.39.68,0,.79.23.65-.3.5-.69.08-1.15-.08-.07-.79-.34-.76-.57.08-.46.49-.08.72-.23s.38.27.34-.54c0-.61-.26-.61-.68-1.07l-.11-.35s.15,0,.19,0c-.12-.08.26.08.53.15.07,0,.11-.26.07-.3.42,0,0-.5-.07-.54C16.44,16.42,16.06,16.61,15.68,16.54ZM15,20c0,.15-.11-.31-.11-.31a1,1,0,0,0,.34,0C15.26,20,15.15,20.07,15,20Zm-11,.5s0,0-.07,0l-.19-.11.68-.23-.49,0c.07-.08.11-.12.11-.19,0-.73-.53-.77-.91-.81l.19-.23c.19-.23.3-.19.61.08a1.68,1.68,0,0,0,.45.3.47.47,0,0,0,.3.08A.43.43,0,0,0,5,19.26a1.16,1.16,0,0,0-.19-1.8,1.81,1.81,0,0,0-1.51.38,1,1,0,0,0-.34.73H2.87v-.23l-.07-.07c-.08-.08-.19-.16-1.14.23a.38.38,0,0,0-.3,0A2.63,2.63,0,0,0,0,20a.38.38,0,0,0,.19.39,1.29,1.29,0,0,0,.87,0,1.43,1.43,0,0,0,.15-.11s0,.08.07.08a1.52,1.52,0,0,0,1,0,3,3,0,0,1-.23.31l.08.15-.19,0v0l.11.19H2c.11.16.38.16.6.16h.12s0,.07.07.11a.63.63,0,0,0,.49.08l.19,0-.07-.23.3.38-.15-.5L3.85,21l.31-.12s0,0,.07,0l.11-.11-.18-.35L4,20.53Zm-1-1.42L3.14,19l0,.08s-.07,0-.11,0ZM9,22.18a5,5,0,0,1,.53.23c.07-.12,0-.31,0-.46.11-.5-.76-.42-.76-.73s-.6,0-.64,0c-.23,0-.08-.38-.34-.31s-.34.31-.57.42l.08.08h0c-.15,0-.26.12-.34.23s-.19-.08-.26-.11a1.05,1.05,0,0,0-.49-.16c-.16,0-.31.08-.42.16a.3.3,0,0,1-.15.07h0l-.12.19v-.19H5.37c-.34-.15-.72-.19-.87,0l-.12.12.08.11a.37.37,0,0,1,0,.35c0,.07,0,.15,0,.27v.19h.19l-.19,0v.07c.15.58.26.92.53,1H5c.07,0,.19,0,.3-.23,0,0,0,0,0-.08a.38.38,0,0,0,.3-.11.31.31,0,0,0,.19-.27A.27.27,0,0,0,6,23l.19,0,0,0a1,1,0,0,0,.64.23.55.55,0,0,0,.45.08h0l.53.12-.08-.12c.31,0,.42,0,.49-.15a.27.27,0,0,1,.16-.12l.41-.23-.38-.11s.12-.08.15-.12.23.08.42,0l.53,0-.42-.27A.86.86,0,0,0,9,22.18Zm-.61-.27s0,0,.08,0,0,0-.08,0Zm5.86,2.3c.07,0-1.06.08-.76-.11-.11,0-.38.19-.38.3,0-.07.57.39.46.35-.53.15.6,1.3.64.5,0-.08-1.06-1.08.07-.62-.22.27.34.81.61.85s.72-.62.72-.65c-.19-.69-.76-.54-1.36-.62Zm8.39-3.53s-.65.39-.65.08c0,.38-.6-.12-.64-.16a2.42,2.42,0,0,1-.07-.34c-.42.15-.42-.23-.46-.46-.11,0-.22,0-.38-.12,0,0-.3.85-.37,1s.11.62-.19.46c0,0,0-.11,0-.15-.23-.11.3-1.19.26-1.42a.91.91,0,0,0-.9.81c-.12.23-.53.53-.8.34,0,.12,0,.77,0,1.34a2,2,0,0,0-.12.31s-.49,1.11-.38,1.42c.34.08.5-.27.34.42,0,.16-.68.69-.52.89-.15,0-.27.26-.27.3,0,.27.46,0,.46.62.22.15.26-.23.3-.23-.19-.12.3-.31,0-.46a2.11,2.11,0,0,1,.41.11v-.27c.08,0,.15,0,.15.08.15-.11,0-.34,0-.46a2.87,2.87,0,0,1,.23-1.23,1.71,1.71,0,0,0,.45,0,5.91,5.91,0,0,1,.19-.69c0-.08-.11-.19-.11-.19s.41-.77,0-.66c.45-.11-.08-.22.07-.38,1.29-.5-.19,1.5.68,1.92.42.19.3-1,.12-1.08a.85.85,0,0,0,1.05-.26c-.11.15.23-1.39.38-1a.63.63,0,0,0,.23.08c-.11.19-.49.23-.53.5.08,0,.68.92.76.65,0-.42.3-.23.41-.61l.95-.35c.11,0-.12-.35-.12-.38C23.58,20.68,22.41,21,22.6,20.68ZM18.36,4.41c0,.5.65.31.5,1C18.93,5.33,19.91,3.91,20,4s-.19-1.38-.68-.38c-.07-.16-.07,0-.07.11s-.12,0-.08.16c-.11-.08-.72-1-.79,0C18.14,3.53,18.33,4.53,18.36,4.41Zm.84,2.15c.11.12.19.19.22.19A.75.75,0,0,1,19.2,6.56Zm13.3.12c0-.23-.38-.73-.65-.73-.11,0-.11.61-.34.65-.64.11-.26-.81-1-.23,0,0-.41.65-.3.77s.19,0,.3-.08c0,.35.19.54.57.58-.11,0,.26-.23.34-.23a1,1,0,0,1,0-.35c.42,0,.76.23,1.06.19C32.46,7.14,32.65,6.79,32.5,6.68Z"/><path class="cls-3" d="M31.33,7.41ZM21.42,3c0,.35-.6.35-.37.93.11-.31,1.09.19,1.4,0,0,0,.22-.35.3-.54.19.42,1.55-1.15.49-1.23-.19-.5-.45.58-.49.69-.46,0-.27-1.19-.38-1.19s-.3.54-.38.62c0-.08,0-.12-.07-.12.15-.8-.23-.27-.42-.34a5.44,5.44,0,0,1-.53.46.14.14,0,0,0,.19.08c.68,0,.45.38.64.49C21.69,2.72,21.54,2.8,21.42,3Z"/></g></g></svg>