<svg xmlns="http://www.w3.org/2000/svg" viewBox="0 0 121.71 150"><defs><style>.cls-1{fill:#3a3a3a;}</style></defs><title>mochila</title><g id="Layer_2" data-name="Layer 2"><g id="Layer_1-2" data-name="Layer 1"><path class="cls-1" d="M7.82,136.35h3.7V140a10,10,0,0,0,10,10h78.61a10,10,0,0,0,10-10v-3.61h3.69a7.82,7.82,0,0,0,7.82-7.82v-38a7.82,7.82,0,0,0-7.82-7.82H110.2V71.3A17.48,17.48,0,0,0,116.33,58V33.22a22,22,0,0,0-22-22H84.48V7a60.33,60.33,0,0,1,6,2,1.7,1.7,0,0,0,.69.14,1.88,1.88,0,0,0,.7-3.62C85.55,3,73.45,0,60.29,0c-13,0-25.11,2.08-32.47,5.56A1.88,1.88,0,1,0,29.43,9a38.09,38.09,0,0,1,5.35-2v4.3H27.36a22,22,0,0,0-22,22V58a17.52,17.52,0,0,0,6.13,13.3V82.7H7.82A7.83,7.83,0,0,0,0,90.52v38A7.83,7.83,0,0,0,7.82,136.35Zm0-3.74a4.08,4.08,0,0,1-4.07-4.08v-24.3h7.77v28.38Zm106.07,0H110.2V104.23H118v24.3A4.08,4.08,0,0,1,113.89,132.61Zm0-46.16A4.08,4.08,0,0,1,118,90.52v10H110.2v-14ZM38.46,6A99.78,99.78,0,0,1,60.29,3.75,93.61,93.61,0,0,1,80.78,6.09a1.69,1.69,0,0,0,0,.24v4.92H38.53V6.33A1.86,1.86,0,0,0,38.46,6ZM9.13,58V33.22A18.24,18.24,0,0,1,27.36,15h67a18.24,18.24,0,0,1,18.23,18.22V58A13.81,13.81,0,0,1,98.8,71.8H69.41v-7a1.88,1.88,0,0,0-1.87-1.88H54.18a1.88,1.88,0,0,0-1.87,1.88v7H22.92A13.81,13.81,0,0,1,9.13,58Zm56.53,8.63V80.71h-9.6V66.63ZM22.92,75.55H52.31v7a1.87,1.87,0,0,0,1.87,1.87H67.54a1.87,1.87,0,0,0,1.87-1.87v-7H98.8a17.47,17.47,0,0,0,7.66-1.79V140a6.31,6.31,0,0,1-6.29,6.3H21.55a6.3,6.3,0,0,1-6.29-6.3V73.76A17.44,17.44,0,0,0,22.92,75.55ZM7.82,86.45h3.7v14H3.75v-10A4.08,4.08,0,0,1,7.82,86.45Z"/><path class="cls-1" d="M30.3,29.29H89.54a1.88,1.88,0,1,0,0-3.75H30.3a1.88,1.88,0,1,0,0,3.75Z"/><path class="cls-1" d="M44,104.32h-6a1.88,1.88,0,1,0,0,3.75H44a1.88,1.88,0,0,0,0-3.75Z"/><path class="cls-1" d="M57.08,104.32H51a1.88,1.88,0,0,0,0,3.75h6a1.88,1.88,0,1,0,0-3.75Z"/><path class="cls-1" d="M70.21,104.32h-6a1.88,1.88,0,0,0,0,3.75h6a1.88,1.88,0,1,0,0-3.75Z"/><path class="cls-1" d="M83.34,104.32h-6a1.88,1.88,0,0,0,0,3.75h6a1.88,1.88,0,0,0,0-3.75Z"/><path class="cls-1" d="M29.88,136.35H91.37a1.88,1.88,0,0,0,1.88-1.87V95.18a1.88,1.88,0,0,0-1.88-1.87H29.88A1.88,1.88,0,0,0,28,95.18v39.3A1.87,1.87,0,0,0,29.88,136.35Zm1.87-39.3H89.5v35.56H31.75Z"/></g></g></svg>